# xmcd CD database file
#
# Track frame offsets:
#	150
#	14867
#	45330
#	59110
#	78852
#	95477
#	126560
#	140380
#	154330
#	168662
#	193342
#	222650
#	243522
#	274765
#	298147
#
# Disc length: 4351 seconds
#
# Revision: 4
# Processed by: cddbd v1.4PL0 Copyright (c) Steve Scherf et al.
# Submitted via: CDex 1.50Beta7
#
DISCID=f510fd0f
DTITLE=Various Artist - Cuba - I am Time 3
DYEAR=1997
DGENRE=Salsa
TTITLE0=Beny More - Que Bueno Baila Usted
TTITLE1=Elio Reve y Su Charangon - Rumba Caliente
TTITLE2=Peillo Afrokan - Iliana Quiere Chocolate
TTITLE3=Septeto Nacional de Ignacio Pineira - Echale Salsita
TTITLE4=Sexteto Habanero - Tres Lindas Cubanas
TTITLE5=Orchestra Aragon - Pare Cochero
TTITLE6=Isreal Lopez - Sociedad Antonio Maceo
TTITLE7=Arcano y Sus Maravillas - Mulatica Revoltosa
TTITLE8=Arsenio Rodriguez - Adivinalo
TTITLE9=Chappotin y Miguelito Cuni - Oye El Carbonero
TTITLE10=Juan Formell y los Van Van - Que Sorpresa!
TTITLE11=Adalberto Alvarez y Su Son - Recordando Al Sonero
TTITLE12=Jose Luis Cortes y NG La Branda - La Bruja, Camara
TTITLE13=Manolin El Medico De la Salsa - La Bola
TTITLE14=Issac Delgado y Su Orchestra - Se Te Fue la Mano
EXTD=YEAR: 1997
EXTT0=
EXTT1=
EXTT2=
EXTT3=
EXTT4=
EXTT5=
EXTT6=
EXTT7=
EXTT8=
EXTT9=
EXTT10=
EXTT11=
EXTT12=
EXTT13=
EXTT14=
PLAYORDER=
